<svg width="25" height="27" viewBox="0 0 25 27" fill="none" xmlns="http://www.w3.org/2000/svg">
<path d="M17.2386 13.5L24.3459 6.26838C25.218 5.38096 25.218 3.94215 24.3459 3.054L22.7663 1.44682C21.8942 0.559395 20.4801 0.559395 19.6072 1.44682L12.5 8.67844L5.39276 1.44682C4.5206 0.559395 3.10653 0.559395 2.23366 1.44682L0.654119 3.054C-0.21804 3.94143 -0.21804 5.38023 0.654119 6.26838L7.76136 13.5L0.654119 20.7316C-0.21804 21.619 -0.21804 23.0578 0.654119 23.946L2.23366 25.5532C3.10582 26.4406 4.5206 26.4406 5.39276 25.5532L12.5 18.3216L19.6072 25.5532C20.4794 26.4406 21.8942 26.4406 22.7663 25.5532L24.3459 23.946C25.218 23.0586 25.218 21.6198 24.3459 20.7316L17.2386 13.5Z" fill="#1F768A"/>
</svg>
