<svg xmlns="http://www.w3.org/2000/svg" width="22" height="22" fill="none" viewBox="0 0 22 22">
    <path fill="#fff" d="M11 .344C5.124.344.344 5.124.344 11S5.124 21.656 11 21.656 21.656 16.876 21.656 11 16.876.344 11 .344zm7.046 4.914c1.267 1.549 2.035 3.522 2.055 5.67-.3-.064-3.31-.674-6.338-.293-.247-.603-.48-1.134-.8-1.788 3.365-1.374 4.89-3.33 5.083-3.59zm-1.012-1.053c-.164.234-1.534 2.075-4.77 3.288-1.492-2.74-3.145-4.991-3.397-5.328 2.886-.696 5.928.054 8.167 2.04zM7.13 2.777c.24.329 1.867 2.583 3.375 5.264C6.247 9.17 2.497 9.155 2.09 9.15c.59-2.825 2.494-5.172 5.04-6.373zm-5.232 8.237c0-.093.002-.186.005-.278.398.008 4.809.065 9.354-1.296.26.51.51 1.028.738 1.545-3.291.927-6.282 3.59-7.757 6.115-1.454-1.614-2.34-3.748-2.34-6.086zm3.515 7.18c.95-1.943 3.531-4.452 7.2-5.704 1.279 3.32 1.807 6.104 1.942 6.903-2.926 1.246-6.446.904-9.142-1.198zm10.673.365c-.094-.553-.578-3.218-1.769-6.49 2.853-.456 5.359.291 5.67.39-.406 2.532-1.86 4.72-3.901 6.1z"/>
</svg>
