<svg width="22" height="22" viewBox="0 0 22 22" fill="none" xmlns="http://www.w3.org/2000/svg">
<path d="M11 0.34375C5.12411 0.34375 0.34375 5.12411 0.34375 11C0.34375 16.8759 5.12411 21.6562 11 21.6562C16.8759 21.6562 21.6562 16.8759 21.6562 11C21.6562 5.12411 16.8759 0.34375 11 0.34375ZM18.0456 5.25791C19.3133 6.80677 20.081 8.7795 20.101 10.9279C19.8009 10.8644 16.7916 10.254 13.763 10.6349C13.5159 10.0316 13.2826 9.50082 12.9631 8.84679C16.3284 7.47278 17.8537 5.51749 18.0456 5.25791ZM17.0337 4.20535C16.87 4.43854 15.4999 6.28014 12.2633 7.49328C10.7717 4.7529 9.11861 2.50168 8.86703 2.16481C11.7535 1.46902 14.7953 2.21938 17.0337 4.20535ZM7.13028 2.77664C7.37026 3.10574 8.99675 5.35975 10.5049 8.0407C6.24727 9.17134 2.49726 9.15505 2.09017 9.14968C2.68039 6.32521 4.58382 3.97775 7.13028 2.77664ZM1.89793 11.0139C1.89793 10.9208 1.89978 10.8282 1.90257 10.7357C2.3008 10.7439 6.71163 10.8008 11.2571 9.44041C11.5177 9.95036 11.7666 10.468 11.9951 10.9851C8.70371 11.9121 5.7133 14.5741 4.23788 17.0998C2.78412 15.4862 1.89793 13.3517 1.89793 11.0139ZM5.41307 18.1945C6.36384 16.2509 8.94416 13.742 12.6137 12.4902C13.8916 15.8109 14.4201 18.594 14.5554 19.3926C11.6288 20.6392 8.10949 20.2972 5.41307 18.1945ZM16.0857 18.5593C15.9924 18.0056 15.5079 15.341 14.3174 12.0696C17.1697 11.613 19.6756 12.3604 19.987 12.4587C19.5813 14.9913 18.1276 17.1785 16.0857 18.5593Z" fill="#1F768A"/>
</svg>
