<svg width="28" height="28" viewBox="0 0 28 28" fill="none" xmlns="http://www.w3.org/2000/svg">
<path d="M13.5062 6.64088C9.67441 6.64088 6.58366 9.76135 6.58366 13.63C6.58366 17.4987 9.67441 20.6191 13.5062 20.6191C17.338 20.6191 20.4288 17.4987 20.4288 13.63C20.4288 9.76135 17.338 6.64088 13.5062 6.64088ZM13.5062 18.1738C11.03 18.1738 9.00565 16.1361 9.00565 13.63C9.00565 11.1239 11.024 9.08616 13.5062 9.08616C15.9885 9.08616 18.0068 11.1239 18.0068 13.63C18.0068 16.1361 15.9824 18.1738 13.5062 18.1738ZM22.3266 6.35499C22.3266 7.26132 21.6036 7.98518 20.7119 7.98518C19.8142 7.98518 19.0973 7.25524 19.0973 6.35499C19.0973 5.45474 19.8203 4.7248 20.7119 4.7248C21.6036 4.7248 22.3266 5.45474 22.3266 6.35499ZM26.9115 8.00951C26.8091 5.82579 26.315 3.89146 24.7305 2.29777C23.152 0.704082 21.2361 0.205294 19.0732 0.0958039C16.844 -0.0319346 10.1624 -0.0319346 7.93322 0.0958039C5.77633 0.199211 3.86042 0.697999 2.27589 2.29169C0.691352 3.88538 0.203339 5.8197 0.0948914 8.00342C-0.0316305 10.2541 -0.0316305 16.9999 0.0948914 19.2505C0.197314 21.4342 0.691352 23.3685 2.27589 24.9622C3.86042 26.5559 5.7703 27.0547 7.93322 27.1642C10.1624 27.2919 16.844 27.2919 19.0732 27.1642C21.2361 27.0608 23.152 26.562 24.7305 24.9622C26.309 23.3685 26.8031 21.4342 26.9115 19.2505C27.038 16.9999 27.038 10.2601 26.9115 8.00951ZM24.0316 21.6654C23.5617 22.8576 22.6519 23.7761 21.465 24.2566C19.6877 24.9683 15.4703 24.8041 13.5062 24.8041C11.5421 24.8041 7.31869 24.9622 5.54738 24.2566C4.36651 23.7822 3.45676 22.8637 2.9808 21.6654C2.27589 19.8709 2.43856 15.613 2.43856 13.63C2.43856 11.647 2.28191 7.38298 2.9808 5.59464C3.45073 4.40242 4.36049 3.48391 5.54738 3.00337C7.32471 2.29169 11.5421 2.45592 13.5062 2.45592C15.4703 2.45592 19.6937 2.29777 21.465 3.00337C22.6459 3.47783 23.5557 4.39633 24.0316 5.59464C24.7365 7.38906 24.5739 11.647 24.5739 13.63C24.5739 15.613 24.7365 19.877 24.0316 21.6654Z" fill="white"/>
</svg>
