<svg xmlns="http://www.w3.org/2000/svg" width="22" height="25" fill="none" viewBox="0 0 22 25">
    <path fill="#fff" d="M4.924 21.877H.364V7.271h4.56v14.604zM2.641 5.28C1.183 5.28 0 4.079 0 2.628 0 1.932.278 1.264.774.771 1.269.28 1.94.002 2.64.002c.701 0 1.373.277 1.868.77.496.492.774 1.16.774 1.856 0 1.45-1.184 2.652-2.642 2.652zm19.354 16.596h-4.551v-7.109c0-1.694-.034-3.867-2.371-3.867-2.372 0-2.735 1.84-2.735 3.745v7.232H7.782V7.271h4.374v1.992h.064c.609-1.147 2.096-2.358 4.315-2.358 4.616 0 5.465 3.022 5.465 6.948v8.023h-.005z"/>
</svg>
