<svg width="22" height="22" viewBox="0 0 22 22" fill="none" xmlns="http://www.w3.org/2000/svg">
<path d="M4.92446 21.8763H0.363393V7.27176H4.92446V21.8763ZM2.64147 5.27957C1.18299 5.27957 0 4.0784 0 2.6282C1.04392e-08 1.93162 0.278297 1.26357 0.77367 0.771013C1.26904 0.278456 1.94091 0.0017395 2.64147 0.0017395C3.34204 0.0017395 4.0139 0.278456 4.50928 0.771013C5.00465 1.26357 5.28295 1.93162 5.28295 2.6282C5.28295 4.0784 4.09946 5.27957 2.64147 5.27957ZM21.9951 21.8763H17.4438V14.7669C17.4438 13.0725 17.4095 10.8997 15.0725 10.8997C12.7011 10.8997 12.3377 12.7405 12.3377 14.6448V21.8763H7.78152V7.27176H12.156V9.26395H12.2198C12.8287 8.11649 14.3162 6.90555 16.5354 6.90555C21.1514 6.90555 22 9.92801 22 13.8538V21.8763H21.9951Z" fill="#1F768A"/>
</svg>
