<svg width="22" height="22" viewBox="0 0 22 22" fill="none" xmlns="http://www.w3.org/2000/svg">
<path d="M21.2517 7.06905C21.0499 6.9022 16.4511 3.20401 15.4402 2.40019C14.4904 1.64102 12.8664 0 11 0C9.14353 0 7.53517 1.62065 6.55982 2.40019C5.50868 3.23593 0.92791 6.92029 0.752598 7.06441C0.517285 7.2579 0.327755 7.50112 0.197628 7.77658C0.0675014 8.05204 8.64098e-06 8.35291 0 8.65756L0 19.9375C0 21.0766 0.923398 22 2.0625 22H19.9375C21.0766 22 22 21.0766 22 19.9375V8.65859C22 8.35489 21.9329 8.05494 21.8036 7.78016C21.6742 7.50539 21.4858 7.26257 21.2517 7.06905ZM19.9375 19.6797C19.9375 19.7481 19.9103 19.8136 19.862 19.862C19.8136 19.9103 19.7481 19.9375 19.6797 19.9375H2.32031C2.25194 19.9375 2.18636 19.9103 2.13801 19.862C2.08966 19.8136 2.0625 19.7481 2.0625 19.6797V8.78053C2.0625 8.70263 2.09756 8.62903 2.15815 8.58009C2.84006 8.02948 6.83285 4.818 7.84566 4.01281C8.62619 3.38937 9.98585 2.0625 11 2.0625C12.0181 2.0625 13.4001 3.41039 14.1543 4.01281C15.1672 4.81809 19.1603 8.03009 19.8419 8.58107C19.8718 8.60522 19.8959 8.63575 19.9124 8.67042C19.929 8.70509 19.9375 8.74303 19.9375 8.78144V19.6797ZM18.5629 11.6143C18.7455 11.836 18.7118 12.1641 18.4879 12.3439C17.2429 13.3444 15.941 14.3891 15.4402 14.7873C14.4648 15.5668 12.8565 17.1875 11 17.1875C9.13292 17.1875 7.5072 15.5445 6.55982 14.7873C6.07518 14.402 4.76614 13.3516 3.51218 12.3438C3.28831 12.1639 3.25467 11.8359 3.4372 11.6142L4.09282 10.8181C4.27234 10.6001 4.5937 10.567 4.81379 10.7439C6.04347 11.7322 7.3303 12.7649 7.84566 13.1747C8.59989 13.7771 9.98194 15.125 11 15.125C12.0141 15.125 13.3739 13.7981 14.1543 13.1747C14.6697 12.765 15.9566 11.7322 17.1863 10.744C17.4064 10.5672 17.7278 10.6003 17.9073 10.8182L18.5629 11.6143Z" fill="#1F768A"/>
</svg>
