<svg xmlns="http://www.w3.org/2000/svg" width="22" height="22" fill="none" viewBox="0 0 22 22">
    <path fill="#fff" d="M21.252 7.069c-.202-.167-4.8-3.865-5.812-4.669C14.49 1.641 12.866 0 11 0 9.144 0 7.535 1.62 6.56 2.4 5.509 3.236.928 6.92.753 7.064c-.236.194-.425.437-.555.713-.13.275-.198.576-.198.88v11.28C0 21.078.923 22 2.063 22h17.875C21.076 22 22 21.077 22 19.937V8.66c0-.304-.067-.604-.196-.879-.13-.275-.318-.517-.552-.711zm-1.314 12.61c0 .07-.028.135-.076.183-.048.048-.114.076-.182.076H2.32c-.068 0-.134-.028-.182-.076-.048-.048-.075-.114-.075-.182V8.78c0-.077.035-.151.095-.2.682-.55 4.675-3.762 5.688-4.567.78-.624 2.14-1.95 3.154-1.95 1.018 0 2.4 1.347 3.154 1.95 1.013.805 5.006 4.017 5.688 4.568.03.024.054.055.07.09.017.034.026.072.026.11V19.68zm-1.375-8.065c.183.222.149.55-.075.73-1.245 1-2.547 2.045-3.048 2.443-.975.78-2.583 2.4-4.44 2.4-1.867 0-3.493-1.643-4.44-2.4-.485-.385-1.794-1.435-3.048-2.443-.224-.18-.257-.508-.075-.73l.656-.796c.18-.218.5-.251.72-.074 1.23.988 2.517 2.02 3.033 2.43.754.603 2.136 1.951 3.154 1.951 1.014 0 2.374-1.327 3.154-1.95.516-.41 1.803-1.443 3.032-2.431.22-.177.542-.144.721.074l.656.796z"/>
</svg>
