<svg width="25" height="22" viewBox="0 0 25 22" fill="none" xmlns="http://www.w3.org/2000/svg">
<path d="M0.877551 4.21875H23.6939C24.1786 4.21875 24.5714 3.82702 24.5714 3.34375V1.15625C24.5714 0.672977 24.1786 0.28125 23.6939 0.28125H0.877551C0.392869 0.28125 0 0.672977 0 1.15625V3.34375C0 3.82702 0.392869 4.21875 0.877551 4.21875ZM0.877551 12.9688H23.6939C24.1786 12.9688 24.5714 12.577 24.5714 12.0938V9.90625C24.5714 9.42298 24.1786 9.03125 23.6939 9.03125H0.877551C0.392869 9.03125 0 9.42298 0 9.90625V12.0938C0 12.577 0.392869 12.9688 0.877551 12.9688ZM0.877551 21.7188H23.6939C24.1786 21.7188 24.5714 21.327 24.5714 20.8438V18.6562C24.5714 18.173 24.1786 17.7812 23.6939 17.7812H0.877551C0.392869 17.7812 0 18.173 0 18.6562V20.8438C0 21.327 0.392869 21.7188 0.877551 21.7188Z" fill="#1F768A"/>
</svg>
